<svg xmlns="http://www.w3.org/2000/svg" width="33" height="32" viewBox="0 0 33 32">
    <g fill="none" fill-rule="evenodd">
        <g fill="#000">
            <g transform="translate(-459 -342) translate(459.323 342)">
                <circle cx="16" cy="16" r="16" fill-opacity=".04"/>
                <path fill-opacity=".8" fill-rule="nonzero" d="M13.208 18.5v1h-3.031c-.276 0-.5.224-.5.5 0 .055.009.11.027.162l.033.076.905 1.675c.072.134.202.227.35.254l.09.008h10.535c.276 0 .5-.224.5-.5 0-.066-.013-.13-.038-.19l-.046-.087-1.117-1.675c-.074-.112-.189-.187-.317-.213l-.099-.01h-1.542v-1H20.5c.451 0 .876.203 1.16.548l.088.12 1.117 1.675c.164.246.252.536.252.832 0 .78-.595 1.42-1.356 1.493l-.144.007H11.082c-.501 0-.966-.25-1.243-.66l-.077-.127-.905-1.675c-.118-.22-.18-.464-.18-.713 0-.78.595-1.42 1.355-1.493l.145-.007h3.031z"/>
                <path fill-opacity=".8" fill-rule="nonzero" d="M16.074 13.165l-.586 1.223-.272.577-.363.79-.211.478-.188.44-.163.4-.14.364-.117.326-.092.29c-.095.318-.142.563-.142.738 0 1.277.796 2.309 2.284 2.309 1.512 0 2.3-.976 2.3-2.324 0-.206-.052-.48-.156-.828l-.103-.316-.128-.352-.154-.389-.18-.425-.205-.464-.232-.501-.259-.54-.436-.885-.457-.911zm.019 2.285l.316.668.215.472.189.43.161.39c.05.122.095.237.135.346l.109.303c.11.33.166.57.166.717 0 .837-.393 1.324-1.3 1.324-.87 0-1.284-.536-1.284-1.309 0-.034.004-.075.012-.124l.038-.17c.016-.064.037-.135.062-.214l.087-.258.11-.302.136-.344.16-.385.184-.428.32-.716.184-.4zM10.834 10.912l-.705 1.4-.24.49-.21.447-.182.402-.08.185-.139.338-.11.298-.083.258c-.057.198-.085.357-.085.478C9 16.196 9.654 17 10.844 17c1.207 0 1.856-.763 1.856-1.803 0-.228-.082-.554-.248-.988l-.14-.347-.172-.389-.098-.21-.22-.454-.252-.498-.284-.545-.452-.854zm.019 2.196l.235.481.173.37.145.327.061.147.102.26c.087.239.131.408.131.504 0 .52-.24.803-.856.803-.587 0-.844-.316-.844-.792 0-.05.018-.132.053-.246l.066-.192.092-.238.117-.282.143-.324.26-.564.122-.254zM19.034 8.512l-.705 1.4-.24.49-.21.447-.182.402-.08.185-.139.338-.11.298-.083.258c-.057.198-.085.357-.085.478 0 .988.654 1.792 1.844 1.792 1.207 0 1.856-.763 1.856-1.803 0-.228-.082-.554-.248-.988l-.14-.347-.172-.389-.098-.21-.22-.454-.252-.498-.284-.545-.452-.854zm.019 2.196l.235.481.173.37.145.327.061.147.102.26c.087.239.131.408.131.504 0 .52-.24.803-.856.803-.587 0-.844-.316-.844-.792 0-.05.018-.132.053-.246l.066-.192.092-.238.117-.282.143-.324.26-.564.122-.254z"/>
            </g>
        </g>
    </g>
</svg>
