<svg xmlns="http://www.w3.org/2000/svg" width="32" height="32" viewBox="0 0 32 32">
    <g fill="none" fill-rule="evenodd">
        <g fill="#000" fill-rule="nonzero">
            <g transform="translate(-459 -398) translate(459 398)">
                <circle cx="16" cy="16" r="16" fill-opacity=".04"/>
                <path fill-opacity=".8" d="M21.196 15c.274 0 .5.212.519.485-.004 2.99-2.268 5.503-5.249 5.817l-.09.1v1.502l.1.1h2.472c.266.018.478.245.478.518s-.212.5-.484.518h-6.176c-.266-.018-.478-.245-.478-.518s.212-.5.485-.518h2.468l.1-.1v-1.502l-.09-.1c-2.982-.313-5.248-2.826-5.251-5.824.018-.266.245-.478.518-.478s.5.212.518.485c0 2.656 2.158 4.814 4.821 4.814s4.821-2.158 4.821-4.821c.019-.266.245-.478.518-.478z"/>
                <path fill-opacity=".8" d="M15.902 8C14.3 8 13 9.3 13 10.902v4.388c0 1.603 1.3 2.903 2.902 2.903 1.603 0 2.903-1.3 2.903-2.903v-4.388C18.805 9.3 17.505 8 15.902 8zm0 1c1.05 0 1.903.852 1.903 1.902v4.388c0 1.051-.852 1.903-1.903 1.903-1.05 0-1.902-.852-1.902-1.903v-4.388C14 9.852 14.852 9 15.902 9z"/>
            </g>
        </g>
    </g>
</svg>
