<svg xmlns="http://www.w3.org/2000/svg" width="32" height="32" viewBox="0 0 32 32">
    <g fill="none" fill-rule="evenodd">
        <g fill-rule="nonzero">
            <g transform="translate(-459 -287) translate(459 287)">
                <circle cx="16" cy="16" r="16" fill="#000" fill-opacity=".04"/>
                <path fill="#000" fill-opacity=".8" d="M15.271 18.645l-.545 2.422-.403-1.474.948-.948zm4.471-4.468l2.01 3.256 1.442-2.625 2.218 3.22-.824.567-1.298-1.885-1.487 2.709-1.958-3.173-1.592 3.35-.98-2.952.791-.79.354 1.064 1.283-2.7.041-.04zm-6.72-3.148l1.292 4.734-.814.814-.513-1.881-.997 3.391-.933.933-1.222-2.319-1.256 2.128-1.972-2.503.786-.619 1.067 1.356 1.426-2.412 1.33 2.524 1.807-6.146zm3.147-.894l.94 2.835-2.042 2.041 1.102-4.876z"/>
                <path stroke="#000" stroke-opacity=".8" d="M22.997 9.075l-13 13 13-13z"/>
            </g>
        </g>
    </g>
</svg>
