<svg xmlns="http://www.w3.org/2000/svg" width="32" height="32" viewBox="0 0 32 32">
    <g fill="none" fill-rule="evenodd">
        <g fill="#000" fill-rule="nonzero">
            <g transform="translate(-459 -174) translate(459 174)">
                <circle cx="16" cy="16" r="16" fill-opacity=".04"/>
                <path fill-opacity=".8" d="M16.052 19.586c.587 0 1.065.485 1.065 1.086 0 .6-.478 1.086-1.065 1.086s-1.065-.485-1.065-1.086c0-.6.478-1.086 1.065-1.086zM16.052 15.392c1.647 0 3.206.653 4.393 1.843.215.215.215.562 0 .777-.216.215-.564.215-.778 0-.977-.98-2.261-1.52-3.614-1.52-1.353 0-2.637.54-3.615 1.52-.104.104-.243.161-.39.161-.145 0-.284-.057-.389-.161-.214-.215-.214-.562 0-.779 1.187-1.188 2.746-1.841 4.393-1.841zM16.052 11c2.796 0 5.42 1.103 7.395 3.109.212.216.21.564-.007.777-.216.213-.565.21-.777-.006-1.764-1.793-4.113-2.781-6.61-2.781s-4.846.988-6.61 2.78c-.105.107-.245.165-.392.165-.145 0-.282-.056-.387-.158-.216-.213-.219-.561-.006-.777C10.633 12.103 13.256 11 16.052 11z"/>
            </g>
        </g>
    </g>
</svg>
